<svg xmlns="http://www.w3.org/2000/svg" viewBox="0 0 48 48" width="48" height="48">
  <circle cx="24" cy="24" r="24" fill="#0068FF"/>
  <path d="M26.7 17.2c-3.1 0-5.6 2.1-5.6 4.8 0 1.1.4 2.2 1.2 3.1.1.1.1.2.1.3l-.4 1.4c-.1.2.1.4.3.3l1.5-.6c.1 0 .2 0 .3 0 .8.3 1.7.5 2.6.5 3.1 0 5.6-2.1 5.6-4.8s-2.5-5-5.6-5zm-2.3 3.6c-.4 0-.7-.3-.7-.7s.3-.7.7-.7.7.3.7.7-.3.7-.7.7zm2.3 0c-.4 0-.7-.3-.7-.7s.3-.7.7-.7.7.3.7.7-.3.7-.7.7zm2.3 0c-.4 0-.7-.3-.7-.7s.3-.7.7-.7.7.3.7.7-.3.7-.7.7z" fill="#fff"/>
  <path d="M18.3 22.8c-2.4 0-4.3 1.6-4.3 3.7 0 .9.3 1.7.9 2.4.1.1.1.2 0 .2l-.3 1.1c0 .2.1.3.2.2l1.2-.4c.1 0 .1 0 .2 0 .6.2 1.3.4 2 .4 2.4 0 4.3-1.6 4.3-3.7s-2-3.9-4.2-3.9zm-1.8 2.8c-.3 0-.5-.2-.5-.5s.2-.5.5-.5.5.2.5.5-.2.5-.5.5zm1.8 0c-.3 0-.5-.2-.5-.5s.2-.5.5-.5.5.2.5.5-.2.5-.5.5zm1.8 0c-.3 0-.5-.2-.5-.5s.2-.5.5-.5.5.2.5.5-.2.5-.5.5z" fill="#fff"/>
</svg>
